HIERARCHY
ROOT mixamorig:Hips
{
	OFFSET 0.00 0.00 0.00
	CHANNELS 6 Xposition Yposition Zposition Zrotation Yrotation Xrotation
	JOINT mixamorig:Spine
	{
		OFFSET	0.0003	0.2415	-0.0410
		CHANNELS 3 Zrotation Yrotation Xrotation
		JOINT mixamorig:Spine1
		{
			OFFSET	0.0004	0.2818	-0.0478
			CHANNELS 3 Zrotation Yrotation Xrotation
			JOINT mixamorig:Spine2
			{
				OFFSET	0.0004	0.3221	-0.0546
				CHANNELS 3 Zrotation Yrotation Xrotation
				JOINT mixamorig:Neck
				{
					OFFSET	0.0005	0.3623	-0.0615
					CHANNELS 3 Zrotation Yrotation Xrotation
					JOINT mixamorig:Head
					{
						OFFSET	-0.0000	0.1864	0.1103
						CHANNELS 3 Zrotation Yrotation Xrotation
						End Site
						{
							OFFSET -0.0000 0.5772 0.3415
						}
					}
				}
				JOINT mixamorig:LeftShoulder
				{
					OFFSET	0.1295	0.3230	-0.0603
					CHANNELS 3 Zrotation Yrotation Xrotation
					JOINT mixamorig:LeftArm
					{
						OFFSET	0.2582	-0.0787	0.0024
						CHANNELS 3 Zrotation Yrotation Xrotation
						JOINT mixamorig:LeftForeArm
						{
							OFFSET	0.6271	-0.0701	-0.0210
							CHANNELS 3 Zrotation Yrotation Xrotation
							JOINT mixamorig:LeftHand
							{
								OFFSET	0.6288	0.0238	0.0536
								CHANNELS 3 Zrotation Yrotation Xrotation
								JOINT mixamorig:LeftHandThumb1
								{
									OFFSET	0.0931	-0.0440	0.0895
									CHANNELS 3 Zrotation Yrotation Xrotation
									JOINT mixamorig:LeftHandThumb2
									{
										OFFSET	0.0745	-0.0352	0.0716
										CHANNELS 3 Zrotation Yrotation Xrotation
										JOINT mixamorig:LeftHandThumb3
										{
											OFFSET	0.0778	-0.0596	0.0620
											CHANNELS 3 Zrotation Yrotation Xrotation
											End Site
											{
												OFFSET 0.0771 -0.0385 0.0386
											}
										}
									}
								}
								JOINT mixamorig:LeftHandIndex1
								{
									OFFSET	0.3516	-0.0207	0.1009
									CHANNELS 3 Zrotation Yrotation Xrotation
									JOINT mixamorig:LeftHandIndex2
									{
										OFFSET	0.0948	-0.0163	0.0282
										CHANNELS 3 Zrotation Yrotation Xrotation
										JOINT mixamorig:LeftHandIndex3
										{
											OFFSET	0.0878	-0.0139	0.0260
											CHANNELS 3 Zrotation Yrotation Xrotation
											End Site
											{
												OFFSET 0.0739 -0.0077 0.0213
											}
										}
									}
								}
								JOINT mixamorig:LeftHandMiddle1
								{
									OFFSET	0.3575	-0.0240	0.0201
									CHANNELS 3 Zrotation Yrotation Xrotation
									JOINT mixamorig:LeftHandMiddle2
									{
										OFFSET	0.1107	-0.0143	-0.0005
										CHANNELS 3 Zrotation Yrotation Xrotation
										JOINT mixamorig:LeftHandMiddle3
										{
											OFFSET	0.1079	-0.0180	-0.0001
											CHANNELS 3 Zrotation Yrotation Xrotation
											End Site
											{
												OFFSET 0.0905 -0.0079 -0.0008
											}
										}
									}
								}
								JOINT mixamorig:LeftHandRing1
								{
									OFFSET	0.3511	-0.0400	-0.0653
									CHANNELS 3 Zrotation Yrotation Xrotation
									JOINT mixamorig:LeftHandRing2
									{
										OFFSET	0.1022	-0.0112	-0.0130
										CHANNELS 3 Zrotation Yrotation Xrotation
										JOINT mixamorig:LeftHandRing3
										{
											OFFSET	0.0951	-0.0175	-0.0114
											CHANNELS 3 Zrotation Yrotation Xrotation
											End Site
											{
												OFFSET 0.0785 -0.0192 -0.0091
											}
										}
									}
								}
								JOINT mixamorig:LeftHandPinky1
								{
									OFFSET	0.3203	-0.0471	-0.1282
									CHANNELS 3 Zrotation Yrotation Xrotation
									JOINT mixamorig:LeftHandPinky2
									{
										OFFSET	0.0919	-0.0139	-0.0358
										CHANNELS 3 Zrotation Yrotation Xrotation
										JOINT mixamorig:LeftHandPinky3
										{
											OFFSET	0.0739	-0.0184	-0.0285
											CHANNELS 3 Zrotation Yrotation Xrotation
											End Site
											{
												OFFSET 0.0643 -0.0134 -0.0250
											}
										}
									}
								}
							}
						}
					}
				}
				JOINT mixamorig:RightShoulder
				{
					OFFSET	-0.1288	0.3230	-0.0627
					CHANNELS 3 Zrotation Yrotation Xrotation
					JOINT mixamorig:RightArm
					{
						OFFSET	-0.2586	-0.0787	-0.0024
						CHANNELS 3 Zrotation Yrotation Xrotation
						JOINT mixamorig:RightForeArm
						{
							OFFSET	-0.6271	-0.0701	-0.0089
							CHANNELS 3 Zrotation Yrotation Xrotation
							JOINT mixamorig:RightHand
							{
								OFFSET	-0.6287	0.0238	0.0323
								CHANNELS 3 Zrotation Yrotation Xrotation
								JOINT mixamorig:RightHandThumb1
								{
									OFFSET	-0.0898	-0.0401	0.0951
									CHANNELS 3 Zrotation Yrotation Xrotation
									JOINT mixamorig:RightHandThumb2
									{
										OFFSET	-0.0718	-0.0320	0.0762
										CHANNELS 3 Zrotation Yrotation Xrotation
										JOINT mixamorig:RightHandThumb3
										{
											OFFSET	-0.0785	-0.0616	0.0649
											CHANNELS 3 Zrotation Yrotation Xrotation
											End Site
											{
												OFFSET -0.0817 -0.0391 0.0433
											}
										}
									}
								}
								JOINT mixamorig:RightHandIndex1
								{
									OFFSET	-0.3495	-0.0148	0.1166
									CHANNELS 3 Zrotation Yrotation Xrotation
									JOINT mixamorig:RightHandIndex2
									{
										OFFSET	-0.0952	-0.0168	0.0285
										CHANNELS 3 Zrotation Yrotation Xrotation
										JOINT mixamorig:RightHandIndex3
										{
											OFFSET	-0.0882	-0.0149	0.0263
											CHANNELS 3 Zrotation Yrotation Xrotation
											End Site
											{
												OFFSET -0.0747 -0.0063 0.0215
											}
										}
									}
								}
								JOINT mixamorig:RightHandMiddle1
								{
									OFFSET	-0.3492	-0.0159	0.0347
									CHANNELS 3 Zrotation Yrotation Xrotation
									JOINT mixamorig:RightHandMiddle2
									{
										OFFSET	-0.1142	-0.0154	0.0020
										CHANNELS 3 Zrotation Yrotation Xrotation
										JOINT mixamorig:RightHandMiddle3
										{
											OFFSET	-0.1083	-0.0173	0.0022
											CHANNELS 3 Zrotation Yrotation Xrotation
											End Site
											{
												OFFSET -0.0948 -0.0113 0.0015
											}
										}
									}
								}
								JOINT mixamorig:RightHandRing1
								{
									OFFSET	-0.3414	-0.0305	-0.0460
									CHANNELS 3 Zrotation Yrotation Xrotation
									JOINT mixamorig:RightHandRing2
									{
										OFFSET	-0.1039	-0.0127	-0.0154
										CHANNELS 3 Zrotation Yrotation Xrotation
										JOINT mixamorig:RightHandRing3
										{
											OFFSET	-0.0986	-0.0151	-0.0145
											CHANNELS 3 Zrotation Yrotation Xrotation
											End Site
											{
												OFFSET -0.0812 -0.0187 -0.0115
											}
										}
									}
								}
								JOINT mixamorig:RightHandPinky1
								{
									OFFSET	-0.3134	-0.0352	-0.1095
									CHANNELS 3 Zrotation Yrotation Xrotation
									JOINT mixamorig:RightHandPinky2
									{
										OFFSET	-0.0934	-0.0162	-0.0366
										CHANNELS 3 Zrotation Yrotation Xrotation
										JOINT mixamorig:RightHandPinky3
										{
											OFFSET	-0.0748	-0.0184	-0.0291
											CHANNELS 3 Zrotation Yrotation Xrotation
											End Site
											{
												OFFSET -0.0668 -0.0139 -0.0261
											}
										}
									}
								}
							}
						}
					}
				}
			}
		}
	}
	JOINT mixamorig:LeftUpLeg
	{
		OFFSET	0.2065	-0.1342	0.0157
		CHANNELS 3 Zrotation Yrotation Xrotation
		JOINT mixamorig:LeftLeg
		{
			OFFSET	0.0364	-1.2864	-0.0094
			CHANNELS 3 Zrotation Yrotation Xrotation
			JOINT mixamorig:LeftFoot
			{
				OFFSET	0.0134	-1.2138	-0.0974
				CHANNELS 3 Zrotation Yrotation Xrotation
				JOINT mixamorig:LeftToeBase
				{
					OFFSET	-0.0035	-0.3019	0.3296
					CHANNELS 3 Zrotation Yrotation Xrotation
					End Site
					{
						OFFSET -0.0253 -0.0000 0.1929
					}
				}
			}
		}
	}
	JOINT mixamorig:RightUpLeg
	{
		OFFSET	-0.2041	-0.1342	0.0153
		CHANNELS 3 Zrotation Yrotation Xrotation
		JOINT mixamorig:RightLeg
		{
			OFFSET	-0.0364	-1.2865	0.0237
			CHANNELS 3 Zrotation Yrotation Xrotation
			JOINT mixamorig:RightFoot
			{
				OFFSET	-0.0134	-1.2138	-0.1333
				CHANNELS 3 Zrotation Yrotation Xrotation
				JOINT mixamorig:RightToeBase
				{
					OFFSET	0.0035	-0.3019	0.3388
					CHANNELS 3 Zrotation Yrotation Xrotation
					End Site
					{
						OFFSET 0.0252 -0.0000 0.1929
					}
				}
			}
		}
	}
}
MOTION
Frames: 9
Frame Time: 0.0333333
0.0062 2.7283 -0.0175 0.7462 -43.2385 -4.9565 -1.1617 4.8334 5.7499 -1.1900 9.4719 11.4933 -1.1900 9.4719 11.4933 0.3013 -1.2539 -4.3087 -2.7306 20.2657 -6.8280 -7.8914 -0.5001 1.4699 -55.3305 -15.7444 -10.5593 -9.6509 -35.6733 8.9194 26.8532 -2.8032 15.7513 -4.2144 14.7859 17.9259 7.3843 -3.9230 -8.9016 -8.4750 -9.3561 0.2469 2.6911 2.7310 -0.5653 -15.4405 -0.4127 5.0581 0.0000 -0.0000 0.0000 -13.6188 4.8708 2.1260 -17.9514 -6.5689 1.0514 0.0000 0.0000 0.0000 -28.0311 -2.4139 -0.5635 -32.4814 -4.6273 -3.0685 7.3634 0.5755 1.0441 -29.8985 -12.8839 -2.8003 -32.7828 -6.6492 -9.8199 -0.0000 -0.0000 -0.0000 10.1498 9.0765 3.0310 55.0578 -11.0734 -19.4812 13.6945 33.5048 -0.4505 6.4321 4.5144 10.6868 6.7394 -15.6150 0.0589 -11.8077 -13.2148 -0.9838 9.6351 9.1571 1.3842 -2.6776 -8.7897 -0.2166 15.8650 -0.3817 5.3925 4.8240 0.5284 1.3620 7.0798 6.2888 0.0273 32.2829 3.0129 1.6200 0.0000 -0.0000 -0.0000 16.9157 12.8532 2.3925 37.6925 5.6703 -4.4045 -5.9040 -0.3450 0.9425 18.5412 23.2966 1.1493 38.7690 9.3105 -11.8269 0.0000 -0.0000 0.0000 7.7261 11.1608 -24.4616 -7.9014 -11.0970 35.2132 -6.0623 -0.0600 -5.6535 0.9343 -3.1818 -2.3705 -13.1861 -14.8786 -2.1652 -5.5742 -7.8788 32.2454 15.1642 1.8958 -19.3067 -3.2638 -0.2271 -2.7839 
0.0064 2.7283 -0.0174 0.7810 -43.3320 -4.9465 -1.1784 4.8366 5.7430 -1.2160 9.4787 11.4785 -1.2160 9.4787 11.4785 0.2759 -1.2787 -4.3654 -2.7611 20.4017 -6.7544 -7.8922 -0.5085 1.4726 -55.2981 -15.7297 -10.5594 -9.6630 -35.7056 8.9428 26.8393 -2.8027 15.7571 -4.1007 15.0152 18.0903 7.4085 -3.6762 -8.7693 -8.4750 -9.3561 0.2469 2.4748 2.7096 -0.4925 -15.6907 -0.4440 5.1330 -0.0000 0.0000 -0.0000 -13.8719 4.8452 2.1224 -18.1915 -6.6022 1.0774 0.0000 0.0000 0.0000 -28.2607 -2.4446 -0.5869 -32.7400 -4.6736 -3.0825 7.3634 0.5755 1.0441 -30.1251 -12.9104 -2.8466 -33.0075 -6.6978 -9.8734 -0.0000 -0.0000 0.0000 10.1644 9.1190 3.0289 55.0333 -11.0454 -19.4517 13.7193 33.4040 -0.4251 6.3121 4.4771 10.6688 6.7998 -15.5953 0.3261 -11.8357 -13.2324 -1.0140 9.6351 9.1571 1.3842 -2.8072 -8.8082 -0.2374 15.8172 -0.3851 5.3781 4.8240 0.5284 1.3620 6.9413 6.2628 0.0095 32.1459 3.0046 1.6092 0.0000 0.0000 0.0000 16.8037 12.8330 2.3873 37.5416 5.6405 -4.3942 -5.9040 -0.3450 0.9425 18.4053 23.2816 1.1508 38.6440 9.2749 -11.7957 -0.0000 0.0000 -0.0000 7.6964 11.1463 -24.4729 -7.8034 -11.0238 35.1967 -6.1195 -0.0594 -5.6699 0.9343 -3.1818 -2.3705 -13.1726 -14.8896 -2.2494 -5.6021 -7.7724 32.2563 15.1773 1.8957 -19.2992 -3.2600 -0.2273 -2.7871 
0.0066 2.7284 -0.0173 0.8175 -43.4224 -4.9286 -1.1938 4.8313 5.7366 -1.2397 9.4689 11.4648 -1.2397 9.4689 11.4648 0.2346 -1.2760 -4.4127 -2.8254 20.5763 -6.6966 -7.9017 -0.5182 1.4747 -55.2751 -15.7023 -10.5572 -9.6747 -35.7416 8.9614 26.8177 -2.8040 15.7587 -3.9842 15.2314 18.2364 7.4316 -3.4188 -8.6273 -8.4750 -9.3561 0.2469 2.2628 2.6895 -0.4231 -15.9218 -0.4725 5.2023 -0.0000 -0.0000 0.0000 -14.1187 4.8203 2.1189 -18.4189 -6.6337 1.1021 0.0000 0.0000 -0.0000 -28.5051 -2.4764 -0.6118 -32.9763 -4.7148 -3.0955 7.3634 0.5755 1.0441 -30.3498 -12.9430 -2.8910 -33.2196 -6.7439 -9.9239 0.0000 -0.0000 -0.0000 10.1642 9.1552 3.0298 55.0253 -11.0052 -19.4345 13.7263 33.2782 -0.4149 6.1962 4.4092 10.6863 6.8528 -15.6152 0.5394 -11.8460 -13.2366 -1.0219 9.6351 9.1571 1.3842 -2.9438 -8.8277 -0.2592 15.7285 -0.3914 5.3515 4.8240 0.5284 1.3620 6.7890 6.2454 -0.0116 32.0075 2.9962 1.5985 0.0000 0.0000 -0.0000 16.6576 12.8175 2.3787 37.3842 5.6100 -4.3830 -5.9040 -0.3450 0.9425 18.2573 23.2669 1.1526 38.5079 9.2364 -11.7628 -0.0000 0.0000 -0.0000 7.6655 11.1323 -24.4930 -7.7108 -10.9518 35.1753 -6.1747 -0.0604 -5.6841 0.9343 -3.1818 -2.3705 -13.1546 -14.8933 -2.3432 -5.6363 -7.6770 32.2667 15.1964 1.8957 -19.2921 -3.2633 -0.2316 -2.7847 
0.0068 2.7284 -0.0173 0.8553 -43.5090 -4.9028 -1.2080 4.8178 5.7309 -1.2612 9.4423 11.4525 -1.2612 9.4423 11.4525 0.1782 -1.2459 -4.4517 -2.9234 20.7892 -6.6543 -7.9195 -0.5292 1.4760 -55.2612 -15.6629 -10.5531 -9.6860 -35.7813 8.9751 26.7887 -2.8068 15.7564 -3.8652 15.4358 18.3643 7.4532 -3.1505 -8.4751 -8.4750 -9.3561 0.2469 2.0552 2.6703 -0.3571 -16.1341 -0.4985 5.2661 0.0000 0.0000 0.0000 -14.3589 4.7960 2.1155 -18.6338 -6.6634 1.1255 0.0000 0.0000 -0.0000 -28.7630 -2.5090 -0.6381 -33.1904 -4.7511 -3.1075 7.3634 0.5755 1.0441 -30.5719 -12.9810 -2.9333 -33.4190 -6.7874 -9.9713 -0.0000 0.0000 0.0000 10.1502 9.1851 3.0333 55.0326 -10.9534 -19.4292 13.7162 33.1290 -0.4192 6.0847 4.3114 10.7377 6.8982 -15.6745 0.6991 -11.8390 -13.2276 -1.0071 9.6351 9.1571 1.3842 -3.0872 -8.8484 -0.2819 15.5994 -0.4007 5.3129 4.8240 0.5284 1.3620 6.6237 6.2360 -0.0360 31.8671 2.9875 1.5877 0.0000 0.0000 -0.0000 16.4784 12.8068 2.3666 37.2204 5.5792 -4.3712 -5.9040 -0.3451 0.9425 18.0974 23.2525 1.1548 38.3607 9.1950 -11.7284 0.0000 -0.0000 0.0000 7.6335 11.1183 -24.5221 -7.6233 -10.8814 35.1504 -6.2281 -0.0630 -5.6966 0.9343 -3.1818 -2.3705 -13.1322 -14.8899 -2.4461 -5.6768 -7.5926 32.2771 15.2213 1.8959 -19.2858 -3.2672 -0.2395 -2.7830 
0.0070 2.7283 -0.0172 0.8712 -43.5537 -4.8762 -1.2156 4.7833 5.7322 -1.2754 9.3738 11.4543 -1.2754 9.3738 11.4543 0.1387 -1.1801 -4.5152 -3.0849 21.0714 -6.6126 -7.9199 -0.5323 1.4770 -55.2595 -15.6450 -10.5515 -9.6897 -35.8412 8.9840 26.7483 -2.7922 15.7605 -3.7491 15.6924 18.4510 7.4501 -2.8476 -8.2678 -8.4750 -9.3561 0.2469 1.8534 2.6355 -0.3025 -16.3162 -0.5206 5.3211 -0.0000 0.0000 0.0000 -14.5591 4.7757 2.1128 -18.8286 -6.6903 1.1470 0.0000 0.0000 -0.0000 -28.9561 -2.5284 -0.6583 -33.3756 -4.7833 -3.1174 7.3634 0.5755 1.0441 -30.7500 -12.9931 -2.9644 -33.5868 -6.8242 -10.0108 -0.0000 -0.0000 -0.0000 10.1619 9.2081 3.0300 55.0081 -10.9172 -19.4243 13.7085 33.0252 -0.4197 6.0111 4.1961 10.7644 6.9332 -15.8094 0.7643 -11.8091 -13.1906 -0.9354 9.6351 9.1571 1.3842 -3.2322 -8.8696 -0.3050 15.4275 -0.4132 5.2612 4.8240 0.5284 1.3620 6.4779 6.2250 -0.0571 31.6863 2.9717 1.5738 -0.0000 0.0000 -0.0000 16.3019 12.8056 2.3519 37.0650 5.5520 -4.3609 -5.9040 -0.3450 0.9425 17.9204 23.2364 1.1571 38.1971 9.1498 -11.6927 -0.0000 0.0000 0.0000 7.6009 11.0769 -24.5662 -7.5310 -10.8345 35.1651 -6.2862 -0.0691 -5.7269 0.9343 -3.1818 -2.3705 -13.1018 -14.8974 -2.5283 -5.7269 -7.5282 32.3092 15.2552 1.8990 -19.2903 -3.2768 -0.2470 -2.7809 
0.0071 2.7280 -0.0172 0.8793 -43.5863 -4.8391 -1.2190 4.7412 5.7335 -1.2834 9.2899 11.4564 -1.2834 9.2898 11.4564 0.0989 -1.1125 -4.5731 -3.2691 21.3838 -6.5872 -7.9024 -0.5350 1.4762 -55.2758 -15.6262 -10.5462 -9.6946 -35.8966 9.0006 26.7525 -2.7854 15.7608 -3.6240 15.9341 18.6002 7.4695 -2.5643 -8.1008 -8.4750 -9.3561 0.2469 1.6680 2.6028 -0.2532 -16.4927 -0.5419 5.3745 -0.0000 0.0000 -0.0000 -14.7539 4.7560 2.1110 -19.0160 -6.7160 1.1675 0.0000 0.0000 -0.0000 -29.1357 -2.5534 -0.6762 -33.5550 -4.8148 -3.1269 7.3634 0.5755 1.0441 -30.9284 -13.0051 -2.9944 -33.7615 -6.8626 -10.0520 0.0000 -0.0000 -0.0000 10.1783 9.2379 3.0280 54.9610 -10.9014 -19.4087 13.7250 32.9322 -0.3982 5.9320 4.0911 10.7709 6.9798 -15.8983 0.8940 -11.7885 -13.1776 -0.8923 9.6351 9.1571 1.3842 -3.3917 -8.8937 -0.3298 15.2505 -0.4261 5.2081 4.8240 0.5284 1.3620 6.3205 6.2146 -0.0800 31.4977 2.9550 1.5597 -0.0000 0.0000 -0.0000 16.1414 12.7933 2.3480 36.8955 5.5223 -4.3497 -5.9040 -0.3450 0.9425 17.7299 23.2190 1.1596 38.0279 9.1032 -11.6556 0.0000 -0.0000 0.0000 7.5684 11.0303 -24.6233 -7.4378 -10.7920 35.1897 -6.3418 -0.0780 -5.7609 0.9343 -3.1818 -2.3705 -13.0638 -14.8997 -2.6121 -5.7858 -7.4808 32.3442 15.2929 1.9047 -19.2975 -3.2778 -0.2543 -2.7845 
0.0072 2.7278 -0.0171 0.8808 -43.6073 -4.7927 -1.2185 4.6917 5.7349 -1.2862 9.1911 11.4588 -1.2862 9.1911 11.4588 0.0589 -1.0431 -4.6264 -3.4739 21.7264 -6.5779 -7.8694 -0.5376 1.4739 -55.3086 -15.6062 -10.5380 -9.7005 -35.9486 9.0231 26.7945 -2.7848 15.7573 -3.4907 16.1631 18.8040 7.5080 -2.2976 -7.9679 -8.4750 -9.3561 0.2469 1.4970 2.5717 -0.2086 -16.6639 -0.5624 5.4264 -0.0000 -0.0000 -0.0000 -14.9448 4.7366 2.1100 -19.1951 -6.7404 1.1870 0.0000 -0.0000 0.0000 -29.3048 -2.5835 -0.6920 -33.7289 -4.8456 -3.1360 7.3634 0.5755 1.0441 -31.1072 -13.0173 -3.0235 -33.9410 -6.9022 -10.0944 -0.0000 -0.0000 0.0000 10.1988 9.2743 3.0273 54.8942 -10.9028 -19.3837 13.7624 32.8478 -0.3581 5.8474 3.9957 10.7592 7.0366 -15.9460 1.0807 -11.7764 -13.1857 -0.8752 9.6351 9.1571 1.3842 -3.5647 -8.9209 -0.3562 15.0686 -0.4395 5.1539 4.8240 0.5284 1.3620 6.1518 6.2047 -0.1048 31.3025 2.9377 1.5456 -0.0000 0.0000 -0.0000 15.9931 12.7706 2.3536 36.7128 5.4903 -4.3375 -5.9040 -0.3451 0.9425 17.5269 23.2006 1.1623 37.8535 9.0553 -11.6173 -0.0000 -0.0000 0.0000 7.5357 10.9795 -24.6918 -7.3451 -10.7543 35.2226 -6.3942 -0.0894 -5.7977 0.9344 -3.1819 -2.3705 -13.0189 -14.8971 -2.6969 -5.8530 -7.4495 32.3819 15.3342 1.9130 -19.3070 -3.2801 -0.2619 -2.7846 
0.0072 2.7277 -0.0171 0.8967 -43.6085 -4.7581 -1.2243 4.6307 5.7396 -1.2997 9.0700 11.4675 -1.2997 9.0700 11.4675 0.0160 -0.9830 -4.7018 -3.6722 22.1542 -6.5888 -7.8409 -0.5451 1.4719 -55.3349 -15.5780 -10.5387 -9.7021 -36.0193 9.0073 26.7398 -2.7548 15.7355 -3.3709 16.4327 18.9237 7.5067 -1.9876 -7.7550 -8.4750 -9.3561 0.2469 1.3136 2.5352 -0.1640 -16.8279 -0.5819 5.4763 -0.0000 0.0000 0.0000 -15.1708 4.7132 2.1162 -19.3259 -6.7587 1.2007 0.0000 -0.0000 0.0000 -29.5291 -2.6161 -0.7057 -33.8942 -4.8745 -3.1443 7.3634 0.5755 1.0441 -31.2918 -13.0382 -3.0528 -34.0744 -6.9317 -10.1257 -0.0000 0.0000 0.0000 10.2124 9.3162 3.0318 54.8506 -10.8598 -19.3689 13.7671 32.7111 -0.3625 5.7452 3.9177 10.7631 7.0843 -16.0171 1.2071 -11.7572 -13.1612 -0.8485 9.6351 9.1571 1.3842 -3.7467 -8.9631 -0.3798 14.8828 -0.4534 5.0989 4.8240 0.5284 1.3620 5.9577 6.1876 -0.1324 31.1240 2.9217 1.5328 -0.0000 -0.0000 0.0000 15.7701 12.7476 2.3499 36.5196 5.4565 -4.3243 -5.9040 -0.3450 0.9425 17.3243 23.1897 1.1655 37.6742 9.0060 -11.5777 -0.0000 0.0000 -0.0000 7.4982 10.9494 -24.7467 -7.2859 -10.7394 35.2291 -6.4205 -0.0976 -5.8160 0.9372 -3.1852 -2.3703 -12.9820 -14.8938 -2.7657 -5.9284 -7.4380 32.4045 15.3803 1.9204 -19.3099 -3.2829 -0.2704 -2.7863 
0.0073 2.7276 -0.0171 0.9138 -43.6075 -4.7171 -1.2302 4.5670 5.7446 -1.3134 8.9435 11.4768 -1.3134 8.9435 11.4768 -0.0204 -0.8779 -4.7873 -3.9484 22.7041 -6.6621 -7.8189 -0.5531 1.4707 -55.3579 -15.5478 -10.5365 -9.7096 -36.0825 9.0222 26.7453 -2.7227 15.7441 -3.2470 16.6998 19.0201 7.5170 -1.6893 -7.5609 -8.4750 -9.3561 0.2469 1.1293 2.4885 -0.1265 -16.9911 -0.6012 5.5261 -0.0000 -0.0000 -0.0000 -15.3391 4.6950 2.1135 -19.5011 -6.7828 1.2196 0.0000 -0.0000 0.0000 -29.6906 -2.6383 -0.7170 -34.0394 -4.8993 -3.1512 7.3634 0.5755 1.0441 -31.4655 -13.0593 -3.0823 -34.2356 -6.9675 -10.1635 0.0000 -0.0000 0.0000 10.2170 9.3715 3.0356 54.8148 -10.8186 -19.3645 13.7685 32.5725 -0.3772 5.6562 3.8115 10.7791 7.1485 -16.0515 1.3749 -11.7370 -13.1671 -0.8342 9.6351 9.1571 1.3842 -3.9072 -8.9984 -0.4012 14.6977 -0.4673 5.0443 4.8240 0.5284 1.3620 5.7648 6.1610 -0.1581 30.9351 2.9047 1.5192 0.0000 0.0000 0.0000 15.5766 12.7396 2.3440 36.3134 5.4205 -4.3099 -5.9040 -0.3450 0.9425 17.1344 23.1855 1.1687 37.4947 8.9569 -11.5380 -0.0000 0.0000 -0.0000 7.4615 10.9357 -24.8063 -7.2461 -10.7324 35.2272 -6.4344 -0.1054 -5.8260 0.9422 -3.1907 -2.3701 -12.9412 -14.8903 -2.8412 -6.0068 -7.4259 32.4213 15.4235 1.9250 -19.3086 -3.2819 -0.2774 -2.7876 
